<svg xmlns="http://www.w3.org/2000/svg" width="32" height="32" viewBox="0 0 32 32">
  <defs>
    <linearGradient id="bg" x1="0%" y1="0%" x2="100%" y2="100%">
      <stop offset="0%" stop-color="#3b82f6"/>
      <stop offset="100%" stop-color="#1d4ed8"/>
    </linearGradient>
  </defs>
  <rect width="32" height="32" rx="6" fill="url(#bg)"/>
  <path d="M9 7h7.5c2.5 0 4.5 1.5 4.5 4 0 1.8-1 3.2-2.5 3.7 2 .4 3.5 2 3.5 4.3 0 2.8-2.3 5-5.5 5H9V7zm4 6h3c1.2 0 2-.8 2-1.8 0-1.2-.8-1.8-2-1.8h-3v3.6zm0 7.6h3.5c1.5 0 2.5-.9 2.5-2.2 0-1.4-1-2.2-2.5-2.2H13v4.4z" fill="white"/>
</svg>